# xmcd
#
# Track frame offsets:
#	183
#	14443
#	30948
#	40308
#	56930
#	71955
#	86133
#	103720
#	121573
#	139138
#	154928
#	167010
#	179275
#	188940
#
# Disc length: 2653 seconds
#
# Revision: 1
# Processed by: cddbd v1.5.2PL0 Copyright (c) Steve Scherf et al.
# Submitted via: audiograbber 1.83.01
#
DISCID=c00a5b0e
DTITLE=Bjøro Håland - Bjøro's beste
DYEAR=1900
DGENRE=Country
TTITLE0=Tro, håp og kjærlighet
TTITLE1=Barndomshjem
TTITLE2=Vis deg på byen en kveld
TTITLE3=Mamma  venter
TTITLE4=Tre magiske sekunder
TTITLE5=En sommerdag i livet
TTITLE6=I love Norwegian country
TTITLE7=Hei gamle landevei
TTITLE8=En venn
TTITLE9=Gjør det gode du kan
TTITLE10=Høstens farver
TTITLE11=Willy's kafé
TTITLE12=Oksedragarsong
TTITLE13=Adios amigo
EXTD=
EXTT0=
EXTT1=
EXTT2=
EXTT3=
EXTT4=
EXTT5=
EXTT6=
EXTT7=
EXTT8=
EXTT9=
EXTT10=
EXTT11=
EXTT12=
EXTT13=
PLAYORDER=
